<svg preserveAspectRatio="none" width="100%" height="100%" overflow="visible" style="display: block;" viewBox="0 0 24 24" fill="none" xmlns="http://www.w3.org/2000/svg">
<g id="ic_basic_search">
<path id="Union" d="M9.5 4.5C12.5376 4.5 15 6.96243 15 10C15 11.1196 14.6644 12.1605 14.0898 13.0293L19.0303 17.9697C19.3232 18.2626 19.3232 18.7374 19.0303 19.0303C18.7374 19.3232 18.2626 19.3232 17.9697 19.0303L13.0967 14.1572C12.1321 14.9924 10.876 15.5 9.5 15.5C6.46243 15.5 4 13.0376 4 10C4 6.96243 6.46243 4.5 9.5 4.5ZM9.5 6C7.29086 6 5.5 7.79086 5.5 10C5.5 12.2091 7.29086 14 9.5 14C11.7091 14 13.5 12.2091 13.5 10C13.5 7.79086 11.7091 6 9.5 6Z" fill="var(--fill-0, #5D697F)"/>
</g>
</svg>
